<?xml version="1.0" encoding="UTF-8"?>
<svg id="_レイヤー_1" data-name="レイヤー 1" xmlns="http://www.w3.org/2000/svg" viewBox="0 0 1650.79 196.83">
  <defs>
    <style>
      .cls-1 {
        stroke-width: 0px;
      }
    </style>
  </defs>
  <path class="cls-1" d="m21.73,188.42l5.95-6.77,5.33-4.31c13.39-1.91,22.35-4.1,26.86-6.56,4.37-2.05,8.27-4.17,11.69-6.36l-16.4-8.82-5.33,4.51-17.63.82-5.13-5.33,12.92-14.56c7.11-5.74,13.39-12.1,18.86-19.07,2.32-3.14,5.46-4.85,9.43-5.12l7.18,2.67c4.37.14,9.02.07,13.94-.21-6.43-1.09-12.44-2.8-18.04-5.13-5.61-2.32-10.12-4.99-13.53-8-3.42-2.73-6.77-8.06-10.05-15.99-5.33,8.89-8.95,17.84-10.87,26.86l-3.69,2.46c-4.38-.41-8.61-1.64-12.71-3.69l-1.64-1.44c-1.1-2.87-1.64-5.67-1.64-8.41l.21-2.87v-.62l.82-3.69-5.13-.82-5.54-4.1-3.49-3.9c-2.74-6.15-4.1-12.37-4.1-18.66,0-3,.62-5.81,1.85-8.41,3.69-3.28,7.24-5.19,10.66-5.74,7.79-1.91,15.44-2.67,22.96-2.26l-1.64-1.23-6.15-9.84.62-3.49c-4.1-.54-8.82-1.3-14.15-2.25-1.51-1.5-2.26-2.94-2.26-4.31,0-1.5.68-3.14,2.05-4.92,2.32-3.55,5.74-5.54,10.25-5.95l8.41-1.03c18.86-1.23,37.79-2.87,56.79-4.92,13.12-.95,28.5-3.28,46.13-6.97,10.52-3,19.89-5.54,28.09-7.59l5.33,6.97-.41,11.48c-1.51,3.15-5.26,5.33-11.28,6.56l3.28,4.92v5.33l-4.1,2.67c-1.37,4.24-3.97,8.68-7.79,13.33,8.88.41,17.56.96,26.04,1.64l7.79,2.05c4.65,2.6,6.77,6.15,6.36,10.66-1.51,3.97-3.62,8.27-6.36,12.92l-6.15,11.07-6.15,7.38-6.36,1.03c-7.66-1.09-14.35-3.42-20.09-6.97l4.51,3.9c3,6.84,4.51,12.92,4.51,18.25l-.21,2.87-6.36,3.28-20.3,1.64,2.05,2.05,3.69,7.79-1.03,1.44c-6.15,10.94-14.22,20.16-24.19,27.68,14.76,8.75,38,14.97,69.71,18.66l1.23,5.74-5.13,3.28-23.99,6.77c-22.28-2.33-42.44-9.16-60.48-20.5-3.28,3.42-6.84,6.12-10.66,8.1-3.83,1.98-8.95,4.2-15.38,6.66l-3.9,1.43c-5.33,3-17.09,4.44-35.26,4.31l-.82-8.41Zm34.44-114l9.02,3.9c3.96,6.29,7.69,11.21,11.17,14.76,3.49,3.56,7.41,5.88,11.79,6.97,6.7,1.23,13.46,2.25,20.3,3.08h2.26l-8.2-4.1c-4.51-1.91-8.61-4.24-12.3-6.97l-.21-.41c-2.46-2.73-3.69-5.81-3.69-9.23v-.62l1.23-5.54,7.38-1.64c5.06,0,9.5,1.78,13.33,5.33l1.44,2.46,12.92,2.05c.95,1.78,1.44,3.69,1.44,5.74s-.34,3.76-1.03,5.13l-5.33,8,11.69-.41-1.85-12.51,11.07-1.23,2.87,2.25-8.61-9.84v-5.95l.82-.62,1.23-1.64-5.74-.41c-21.05.28-36.7.41-46.95.41-12.44.14-31.23.48-56.38,1.02l-3.69,1.85v2.87l3.28,6.77,2.87-4.31,5.95-1.64,10.46,3.28c.82.82,2.26-1.57,4.31-7.18l7.18-1.64Zm27.68-20.71l-5.33-4.72c-.96-3.28-2.26-6.42-3.9-9.43-8.07,1.1-16.2,1.51-24.4,1.23,6.15,6.15,9.43,10.39,9.84,12.71l23.78.21Zm-12.51,88.37l17.43,8.2,3.28-2.46,7.18-7.59-24.4-2.67-3.49,4.51Zm34.03-88.78l16.4.41c1.91-3.55,4.37-6.22,7.38-8,2.87-4.78,5.33-9.36,7.38-13.74-11.07,1.37-24.06,2.8-38.96,4.31,1.64,5.33,3.9,10.53,6.77,15.58l1.03,1.44Zm44.49,21.53c3.28,4.65,6.22,6.97,8.82,6.97l3.69-6.97h-12.51Z"/>
  <path class="cls-1" d="m214.05,58.23c-2.6-4.23-3.69-8.82-3.28-13.74l.41-2.26-1.03-11.69,3.28-7.18c15.99-1.23,32.05-1.85,48.18-1.85,8.88,0,17.84.21,26.86.62,1.5-1.91,2.25-4.1,2.25-6.56l-.61-6.15c1.5-2.46,2.46-5.06,2.87-7.79l3.49-1.64,3.9.62,2.25-.62,4.31,2.67,2.87,2.87,1.23,11.07-.62,2.87,5.54.41c5.47,0,10.52-.68,15.17-2.05l7.18,1.03,5.74-.62,2.26,1.23c7.38-2.05,14.56-3.14,21.53-3.28,7.65-.27,15.17-.68,22.55-1.23,2.73.69,6.83,1.98,12.3,3.9l2.26,4.51,1.23,5.95c-3.01,7.25-5.81,15.58-8.41,25.01l-6.77,1.64-3.28-.41-3.9,1.64-4.51-4.92v-7.38l1.64-12.1-3.49-1.64c-2.46.28-4.38.41-5.74.41-1.23,0-3.21-.13-5.95-.41l-2.87,1.02c-25.29,2.46-50.57,3.69-75.86,3.69-12.44,0-21.8-.13-28.09-.41-4.65.96-9.84,1.44-15.58,1.44-4.65,0-8.82,1.03-12.51,3.08-.41,4.51-.62,8.95-.62,13.33l1.23,6.56c-1.1,1.51-2.8,2.12-5.13,1.85l-2.26-.62c-1.51.82-3.01,1.23-4.51,1.23-.69,0-1.23-.07-1.64-.21l-3.9-3.9Zm51.46,127.73c-1.78-3.15-2.67-7.04-2.67-11.69,0-5.74-.34-11.55-1.03-17.43-.82-4.92-1.1-10.39-.82-16.4l-2.05-.41c-4.38,6.7-9.84,12.99-16.4,18.86l-2.67,1.03c-5.74,2.05-11,3.15-15.79,3.28l-5.54-2.67-2.26-1.64-.62-4.51c6.56-4.65,12.03-9.77,16.4-15.38,3.55-4.78,8.2-10.39,13.94-16.81l5.54-7.18c.68-.96,2.32-3.42,4.92-7.38,2.59-3.96,4.85-7.72,6.77-11.28,1.91-3.55,3.42-6.83,4.51-9.84h-3.28l-11.69,1.85c-5.33.82-10.59,1.23-15.79,1.23-2.46,0-4.31-.07-5.54-.21-3.69,0-7.04-.75-10.05-2.25l-4.1-8.2,2.26-3.49,11.89-2.25,5.54.61c5.88-.41,11.41-1.3,16.61-2.67,5.33-1.23,10.8-1.84,16.4-1.84l2.26.61,2.87-.61,6.15,2.25c8.06-1.5,16.26-2.05,24.6-1.64,5.19-.68,10.05-.89,14.56-.61l3.28.61,4.51-.61,2.26.61,11.28-.61c3.14-.41,6.15-.62,9.02-.62,2.19,0,3.83.07,4.92.21,8.61,0,17.36-.21,26.24-.62l3.49,1.64,3.28-1.02,5.13,1.64c1.77.41,3.08,1.3,3.9,2.67l.41,2.87,2.26.62.62,2.67-1.64,2.87c-2.87,1.92-6.43,2.87-10.66,2.87-1.64,0-2.94-.07-3.9-.21-8.34.28-15.79-.07-22.35-1.03-2.05.82-4.1,1.23-6.15,1.23-.96,0-1.71-.07-2.26-.21l-2.26-.41c-1.64.82-3.42,1.23-5.33,1.23-.96,0-1.64-.07-2.05-.21-5.2-.13-13.05-.2-23.58-.2s-18.18.07-23.37.2l-3.28,1.03c-1.51,3.01-4.03,7.38-7.59,13.12-2.74,4.1-5.06,8.61-6.97,13.53l2.67,1.23,16.2-2.25,2.87.62c5.88.28,11.82-.13,17.84-1.23l19.89-.82c6.29-.27,12.16-1.09,17.63-2.46l2.26.62,3.49-.62,10.66,4.92,2.25,3.49,1.03,2.67c-1.64,5.74-2.53,11-2.67,15.79-.41,5.61-1.23,10.94-2.46,15.99l.61,2.25-3.28,13.94c-1.1,5.2-1.85,10.12-2.26,14.76l-.62,3.9-2.87,2.87-14.56.62c-1.64-.96-3.15-1.43-4.51-1.43l-1.64.2c-6.29.96-12.58,1.37-18.86,1.23l-2.26-.62-9.64,1.64c-3.15.27-8.34.54-15.58.82-6.56.27-11.41.54-14.56.82-5.61-1.5-10.87-3.56-15.79-6.15Zm80.17-13.74v-5.54c1.77-5.88,3.35-14.15,4.72-24.81l.82-5.74-.62-2.87.62-4.51-1.03-2.05c-22.28.55-44.49,2.19-66.63,4.92l-1.23,14.35.61,2.26c-.41,3.01-.61,6.02-.61,9.02,0,5.33.75,11,2.26,17.02l16.2.62c8.34-1.78,19-2.67,31.98-2.67l4.51.41,3.28-1.02,5.13.62Z"/>
  <path class="cls-1" d="m431.79,181.24l-3.08-4.92-2.46-7.59c1.09-27.06,2.05-57.88,2.87-92.47l10.66-3.08,9.02,3.69c2.05,3.69,3.14,7.45,3.28,11.28-.69,11.35-1.16,20.61-1.44,27.78-.28,7.18-.41,13.7-.41,19.58l.21,10.87c0,3.28-.14,7.79-.41,13.53l45.31-2.46c1.36-5.74,2.63-23.99,3.79-54.74,1.16-30.75,1.74-55.01,1.74-72.78v-6.77l2.26-3.69c2.59-1.36,4.65-1.98,6.15-1.85,4.51,1.23,8.27,2.53,11.28,3.9l3.69,6.56-.61,6.15.41,2.46-4.72,117.89,51.67-.82c2.73-46.47,5.67-75.58,8.82-87.34l6.97-.82,8.61,3.9c2.32,3.01,3.49,6.29,3.49,9.84-1.23,2.33-2.39,15.24-3.49,38.75-1.1,23.37-2.12,39.44-3.08,48.18-2.19,2.46-3.76,4.72-4.72,6.77-3.69,1.78-6.77,2.67-9.23,2.67-.82,0-1.44-.07-1.85-.21-.96-.27-2.53-.41-4.72-.41-1.78,0-3.15.07-4.1.21-26.93.69-64.86,2.39-113.79,5.12-7.93,1.37-13.74,2.26-17.43,2.67l-4.72-1.85Z"/>
  <path class="cls-1" d="m688.28,182.27l-2.46-1.64c-3.83-2.19-6.9-3.76-9.23-4.71l-.82-4.72,1.85-2.26c2.19-.41,6.15-3.35,11.89-8.82,6.7-3.96,11.72-8.23,15.07-12.81,3.35-4.58,5.57-9.19,6.66-13.84,1.09-4.64,1.98-10.8,2.67-18.45.13-.82.21-1.98.21-3.49,0-7.65-2.26-15.58-6.77-23.78h-.62c-1.64,0-2.94-.89-3.9-2.67l-.82-6.56,3.49-3.49,9.02-.82c4.65,3.01,8.95,7.72,12.92,14.15l4.51,6.15c17.22-10.39,28.57-22.62,34.03-36.7-73.13,4.51-113.58,7.45-121.38,8.82l-10.25-9.84-.21-3.69,2.87-2.87c8.2-2.05,16.33-3.69,24.4-4.92,9.43-1.09,50.37-3.49,122.81-7.18l6.36.82,7.59,8-.21,4.92-3.28,4.51c-8.75,13.94-15.65,24.23-20.71,30.86-5.06,6.63-10.05,11.86-14.97,15.68-4.92,3.83-12.44,8.82-22.55,14.97.13,5.61-.58,11.04-2.15,16.3-1.57,5.26-3.38,9.88-5.43,13.84-1.23,2.74-5.47,9.5-12.71,20.3-2.74,3.28-4.79,6.08-6.15,8.41-6.7,4.37-12.23,6.9-16.61,7.59l-5.13-2.05Z"/>
  <path class="cls-1" d="m862.4,192.52c-3.15-.69-5.95-1.78-8.41-3.28.41-4.65,1.91-8.13,4.51-10.46,5.88-1.37,10.73-4.37,14.56-9.02,10.66-10.93,17.97-22.76,21.94-35.47,3.96-12.71,5.95-26.99,5.95-42.85l-67.45,2.25-8.41-3.9c-3.01-3-4.51-6.36-4.51-10.05l1.23-2.67c4.92-2.6,10.46-4.1,16.61-4.51l5.54.41,58.23-1.44c-.14-3.55-.21-8.47-.21-14.76,0-16.4.89-27.2,2.67-32.39,1.91-1.23,4.17-1.85,6.77-1.85,1.37,0,2.39.07,3.08.21l5.54,3.9,4.92,4.31-.41,39.36,44.49-1.43,9.02.62c4.78.41,8.88,2.25,12.3,5.54l1.64,5.54-1.03,4.92c-4.38,2.6-9.23,4.1-14.56,4.51l-52.28,1.44c-.69,13.81-1.92,25.66-3.69,35.57-1.78,9.91-4.75,19.14-8.92,27.68-4.17,8.54-9.94,16.37-17.32,23.48-10.25,9.02-18.59,14.01-25.01,14.97l-6.77-.62Z"/>
  <path class="cls-1" d="m1046.21,189.29l-3.9-2.05c-1.51-2.6-2.46-5.2-2.87-7.79l.41-4.72c6.83-1.77,14.35-5.36,22.55-10.76,8.2-5.4,16.26-11.58,24.19-18.55,7.11-6.01,13.53-14.83,19.27-26.45-26.93-7.79-45.24-13.39-54.95-16.81l-10.87,14.56-7.38,5.54c-4.38-.27-7.79-2.05-10.25-5.33-1.78-1.91-2.67-4.1-2.67-6.56,0-.96.07-1.64.21-2.05l1.03-2.25c2.05-3.55,6.42-9.84,13.12-18.86,7.24-9.98,12.51-19.34,15.79-28.09,3-7.65,6.97-16.33,11.89-26.04l4.92-1.23,5.54.62,4.3,1.85,3.08,7.18c24.19-2.59,42.85-3.9,55.97-3.9,8.06,0,13.53.55,16.4,1.64,1.37,3.15,2.05,6.22,2.05,9.23,0,1.78-.21,3.49-.62,5.13-6.15,21.19-11.28,37.32-15.38,48.39s-8.95,20.91-14.56,29.52c-6.56,10.12-12.85,18.69-18.86,25.73-6.02,7.04-12.1,12.68-18.25,16.92-7.79,5.19-13.74,9.02-17.84,11.48-6.29,2.32-12.51,3.9-18.66,4.71l-3.69-1.02Zm86.93-135.11l-58.84,4.92-12.51,25.63c15.85,5.74,34.24,11.14,55.15,16.2,5.06-9.57,10.46-25.15,16.2-46.75Z"/>
  <path class="cls-1" d="m1209.39,124.56l-3.49-1.64c-3.01,1.37-5.54-1.77-7.59-9.43.41-15.85.62-28.98.62-39.37l-.21-15.58c-.28-11.89.21-20.84,1.43-26.86,2.46-1.5,5.06-2.73,7.79-3.69,3.96,1.37,7.04,3.21,9.23,5.54,2.59,4.24,3.69,11.55,3.28,21.94-.69,10.53-1.1,30.55-1.23,60.07l-2.87,7.38-6.97,1.64Zm26.04,63.35l-9.02-3.49-2.05-6.15c7.93-4.65,14.38-8.75,19.38-12.3,4.99-3.55,10.01-7.79,15.07-12.71,5.19-5.05,9.6-12.27,13.22-21.63,3.62-9.36,6.32-19.85,8.1-31.47,1.64-9.84,2.46-20.57,2.46-32.19,0-16.81.41-29.45,1.23-37.93,3.14-1.36,6.15-2.05,9.02-2.05,4.24,0,7.79,1.44,10.66,4.31,2.32,3.42,3.28,7.31,2.87,11.69-.96,21.6-1.81,36.6-2.56,45-.75,8.41-2.08,17.94-4,28.6-1.92,10.25-4.72,18.93-8.41,26.04-3.69,7.11-8.68,14.22-14.97,21.32-5.33,5.88-11.38,10.83-18.14,14.87-6.77,4.03-12.13,6.53-16.09,7.48l-6.77.62Z"/>
  <path class="cls-1" d="m1343.17,173.74l2.25-5.33c7.11-2.05,13.53-3.42,19.27-4.1,8.2-.82,21.12-1.5,38.75-2.05,2.59-16.67,5.81-34.1,9.64-52.28l-43.06,2.05-10.87-3.69-3.9-5.13.41-8.41,74.42-5.95,7.18,4.31,1.84,5.33c-7.52,24.88-11.89,46.47-13.12,64.79l31.57,1.64c3,1.92,6.42,4.44,10.25,7.59l1.64,10.87-9.84,2.05c-19-2.05-33.9-3.08-44.7-3.08-9.3,0-30.07.75-62.33,2.26l-9.43-10.87Z"/>
  <path class="cls-1" d="m1525.32,117.23l-2.67.21c-5.33,0-10.05-1.71-14.15-5.13-1.78-2.32-2.67-5.05-2.67-8.2l2.25-3.28c4.92-1.5,10.11-2.05,15.58-1.64l109.89-1.03,6.15-.62c3.28,2.33,6.83,3.76,10.66,4.31l.41,4.51-3.28,5.95c-3.69,2.46-8,3.9-12.92,4.31l-109.28.62Z"/>
</svg>